<svg width="32" height="32" viewBox="0 0 32 32" fill="none" xmlns="http://www.w3.org/2000/svg">
<path d="M26.4842 3.7705C26.6947 3.55397 26.8233 3.29605 26.8554 3.02577C26.8875 2.7555 26.822 2.48362 26.6661 2.24076C26.5102 1.9979 26.2702 1.79371 25.9732 1.65118C25.6761 1.50866 25.3337 1.43347 24.9847 1.43409H12.9696C12.6399 1.43413 12.316 1.5018 12.0307 1.63026C11.7454 1.75873 11.5087 1.94344 11.3445 2.16576L2.24789 14.4906C2.08462 14.7123 1.99913 14.9634 2.00001 15.2189C2.00088 15.4743 2.08808 15.7251 2.25287 15.9461C2.41765 16.1671 2.65424 16.3505 2.93892 16.478C3.2236 16.6055 3.54637 16.6726 3.87489 16.6725H10.008L4.22729 28.4275C3.39317 29.9142 5.65185 31.274 7.17014 30.1984L30.6267 12.1192H18.3698L26.4824 3.7705H26.4842Z" stroke="#91979F" stroke-width="2.5" stroke-linecap="round" stroke-linejoin="round"/>
</svg>
