<svg width="31" height="31" viewBox="0 0 31 31" fill="none" xmlns="http://www.w3.org/2000/svg">
    <path d="M29 26.3332V15.8978C29.0001 15.1718 28.8501 14.4534 28.5592 13.7867C28.2684 13.1199 27.8427 12.5188 27.3085 12.0202L17.3549 2.72896C16.8536 2.26083 16.1899 2 15.5 2C14.8101 2 14.1464 2.26083 13.6451 2.72896L3.69155 12.0202C3.15725 12.5188 2.73164 13.1199 2.44077 13.7867C2.14991 14.4534 1.99992 15.1718 2 15.8978V26.3332C2 27.0405 2.28446 27.7188 2.79081 28.2189C3.29716 28.719 3.98392 29 4.7 29H26.3C27.0161 29 27.7028 28.719 28.2092 28.2189C28.7155 27.7188 29 27.0405 29 26.3332Z" stroke="#8D3F3F" stroke-width="4" stroke-linecap="round" stroke-linejoin="round"/>
</svg>
