<svg width="30" height="32" viewBox="0 0 30 32" fill="none" xmlns="http://www.w3.org/2000/svg">
<path d="M19 27C19 29.2094 17.7305 31 15.5574 31H7.44262C5.26947 31 4 29.2094 4 27" stroke="#91979F" stroke-width="2" stroke-miterlimit="10" stroke-linecap="round"/>
<path d="M20 23C21.1044 23 22 23.8955 22 25C22 26.1045 21.1044 27 20 27H3C1.89562 27 1 26.1045 1 25C1 23.8955 1.89562 23 3 23" stroke="#91979F" stroke-width="2" stroke-miterlimit="10" stroke-linecap="round"/>
<path d="M20.5 21.6761H10.2069C10.0744 21.6762 9.94745 21.7407 9.85375 21.8553L8.17688 23.9102C8.15366 23.9386 8.12609 23.9612 8.09574 23.9766C8.06539 23.9921 8.03285 24 8 24C7.96715 24 7.93461 23.9921 7.90426 23.9766C7.87391 23.9612 7.84634 23.9386 7.82312 23.9102L6.14625 21.8553C6.05255 21.7407 5.92556 21.6762 5.79313 21.6761H2.5C2.10218 21.6761 1.72064 21.4825 1.43934 21.1378C1.15804 20.7931 1 20.3256 1 19.8381V19.8381C1 19.3506 1.15804 18.8831 1.43934 18.5384C1.72064 18.1937 2.10218 18 2.5 18H20.5C20.8978 18 21.2794 18.1937 21.5607 18.5384C21.842 18.8831 22 19.3506 22 19.8381C22 20.3256 21.842 20.7931 21.5607 21.1378C21.2794 21.4825 20.8978 21.6761 20.5 21.6761Z" stroke="#91979F" stroke-width="2" stroke-miterlimit="10" stroke-linecap="round"/>
<path d="M2 18V17.9843C2 14.0557 5.14338 12 8.98529 12H14.0147C17.8566 12 21 14.0714 21 18V17.9843" stroke="#91979F" stroke-width="2" stroke-miterlimit="10" stroke-linecap="round"/>
<path d="M14 8L15 10" stroke="#91979F" stroke-width="2" stroke-miterlimit="10" stroke-linecap="round"/>
<path d="M15 31H23.7489C24.2559 31 24.7442 30.8093 25.1159 30.4661C25.4875 30.1229 25.7151 29.6525 25.7529 29.1494L28 8" stroke="#91979F" stroke-width="2" stroke-miterlimit="10" stroke-linecap="round"/>
<path d="M22 8L23.0159 2.4L26 1" stroke="#91979F" stroke-width="2" stroke-linecap="round" stroke-linejoin="round"/>
<path d="M14 8H29" stroke="#91979F" stroke-width="2" stroke-miterlimit="10" stroke-linecap="round"/>
</svg>
