<svg width="28" height="27" viewBox="0 0 28 27" fill="none" xmlns="http://www.w3.org/2000/svg">
    <path d="M2.32884e-06 13.5C2.32884e-06 12.2884 0.154 11.1146 0.442396 9.99263C1.21584 10.0333 1.98546 9.85922 2.66618 9.4896C3.34691 9.11997 3.91222 8.56922 4.29963 7.89822C4.68704 7.22722 4.88146 6.4621 4.8614 5.68746C4.84134 4.91281 4.60757 4.15879 4.18595 3.50877C5.87844 1.84272 7.96701 0.635214 10.2549 0C10.6062 0.69121 11.1419 1.27165 11.8027 1.67708C12.4634 2.0825 13.2233 2.29709 13.9984 2.29709C14.7735 2.29709 15.5335 2.0825 16.1942 1.67708C16.8549 1.27165 17.3906 0.69121 17.742 0C20.0298 0.635214 22.1184 1.84272 23.8109 3.50877C23.3888 4.15891 23.1547 4.91321 23.1345 5.68822C23.1142 6.46322 23.3087 7.22871 23.6963 7.9C24.084 8.57128 24.6497 9.12219 25.3308 9.49176C26.012 9.86134 26.7821 10.0352 27.5558 9.99403C28.1481 12.2943 28.1481 14.7071 27.5558 17.0074C26.7823 16.9664 26.0125 17.1403 25.3315 17.5098C24.6506 17.8793 24.0851 18.4301 23.6975 19.1011C23.3099 19.7722 23.1154 20.5374 23.1354 21.3122C23.1554 22.087 23.3892 22.8411 23.8109 23.4912C22.1184 25.1573 20.0298 26.3648 17.742 27C17.3906 26.3088 16.8549 25.7283 16.1942 25.3229C15.5335 24.9175 14.7735 24.7029 13.9984 24.7029C13.2233 24.7029 12.4634 24.9175 11.8027 25.3229C11.1419 25.7283 10.6062 26.3088 10.2549 27C7.96701 26.3648 5.87844 25.1573 4.18595 23.4912C4.60805 22.8411 4.84216 22.0868 4.86237 21.3118C4.88259 20.5368 4.68812 19.7713 4.30048 19.1C3.91284 18.4287 3.34715 17.8778 2.666 17.5082C1.98484 17.1387 1.21477 16.9648 0.440996 17.006C0.147486 15.8605 -0.000677502 14.6825 2.32884e-06 13.5ZM6.72551 17.7021C7.6075 19.2303 7.8595 20.9882 7.5151 22.6382C8.08629 23.0444 8.69388 23.396 9.33088 23.6887C10.6142 22.5385 12.2769 21.903 13.9998 21.9042C15.7638 21.9042 17.413 22.564 18.6688 23.6887C19.3057 23.396 19.9133 23.0444 20.4845 22.6382C20.1309 20.9517 20.4121 19.194 21.2741 17.7021C22.1346 16.2095 23.5155 15.0872 25.1521 14.5505C25.2168 13.8517 25.2168 13.1483 25.1521 12.4495C23.515 11.9131 22.1335 10.7908 21.2727 9.29788C20.4107 7.80603 20.1295 6.0483 20.4831 4.3618C19.9121 3.95548 19.3042 3.60376 18.6674 3.31127C17.3844 4.46115 15.7223 5.09662 13.9998 5.09577C12.2769 5.09696 10.6142 4.46148 9.33088 3.31127C8.69407 3.60377 8.08614 3.95549 7.5151 4.3618C7.86869 6.0483 7.58751 7.80603 6.72551 9.29788C5.86504 10.7905 4.48412 11.9128 2.84756 12.4495C2.78282 13.1483 2.78282 13.8517 2.84756 14.5505C4.48464 15.0869 5.8661 16.2092 6.72691 17.7021H6.72551ZM13.9998 17.7021C12.8859 17.7021 11.8176 17.2594 11.03 16.4713C10.2424 15.6833 9.79987 14.6145 9.79987 13.5C9.79987 12.3855 10.2424 11.3167 11.03 10.5287C11.8176 9.7406 12.8859 9.29788 13.9998 9.29788C15.1137 9.29788 16.182 9.7406 16.9696 10.5287C17.7573 11.3167 18.1998 12.3855 18.1998 13.5C18.1998 14.6145 17.7573 15.6833 16.9696 16.4713C16.182 17.2594 15.1137 17.7021 13.9998 17.7021ZM13.9998 14.9007C14.3711 14.9007 14.7272 14.7531 14.9897 14.4904C15.2523 14.2278 15.3998 13.8715 15.3998 13.5C15.3998 13.1285 15.2523 12.7722 14.9897 12.5096C14.7272 12.2469 14.3711 12.0993 13.9998 12.0993C13.6285 12.0993 13.2724 12.2469 13.0099 12.5096C12.7473 12.7722 12.5998 13.1285 12.5998 13.5C12.5998 13.8715 12.7473 14.2278 13.0099 14.4904C13.2724 14.7531 13.6285 14.9007 13.9998 14.9007Z" fill="black"/>
</svg>
