<svg width="30" height="33" viewBox="0 0 30 33" fill="none" xmlns="http://www.w3.org/2000/svg">
<path d="M20.0013 0H10.0006V3.14286H20.0013V0ZM13.3342 20.4286H16.6677V11H13.3342V20.4286ZM26.7183 10.0414L29.0852 7.81C28.3685 7.00857 27.5851 6.25428 26.735 5.59429L24.3682 7.82571C21.7136 5.81165 18.4084 4.7138 15.0009 4.71429C6.71709 4.71429 0 11.0471 0 18.8571C0 26.6671 6.70042 33 15.0009 33C17.825 33.0014 20.592 32.2508 22.9833 30.8345C25.3747 29.4182 27.293 27.3939 28.5175 24.9947C29.742 22.5955 30.2228 19.9191 29.9045 17.2735C29.5862 14.628 28.4817 12.1211 26.7183 10.0414ZM15.0009 29.8571C8.55054 29.8571 3.33354 24.9386 3.33354 18.8571C3.33354 12.7757 8.55054 7.85714 15.0009 7.85714C21.4513 7.85714 26.6683 12.7757 26.6683 18.8571C26.6683 24.9386 21.4513 29.8571 15.0009 29.8571Z" fill="#91979F"/>
</svg>
