<svg width="36" height="36" viewBox="0 0 36 36" fill="none" xmlns="http://www.w3.org/2000/svg">
    <path d="M18 7C16.8133 7 15.6533 7.38122 14.6666 8.09545C13.6799 8.80968 12.9109 9.82484 12.4567 11.0126C12.0026 12.2003 11.8838 13.5072 12.1153 14.7681C12.3468 16.029 12.9182 17.1872 13.7574 18.0962C14.5965 19.0052 15.6656 19.6243 16.8295 19.8751C17.9933 20.1259 19.1997 19.9972 20.2961 19.5052C21.3925 19.0132 22.3295 18.1801 22.9888 17.1112C23.6481 16.0423 24 14.7856 24 13.5C24 11.7761 23.3679 10.1228 22.2426 8.90381C21.1174 7.68482 19.5913 7 18 7Z" fill="#8D3F3F" stroke="#8D3F3F"/>
    <path d="M18 1C14.6377 1 11.3509 1.99703 8.55531 3.86502C5.75968 5.733 3.58074 8.38804 2.29406 11.4944C1.00737 14.6007 0.670709 18.0189 1.32666 21.3165C1.98261 24.6142 3.6017 27.6433 5.97919 30.0208C8.35668 32.3983 11.3858 34.0174 14.6835 34.6733C17.9811 35.3293 21.3993 34.9926 24.5056 33.7059C27.612 32.4193 30.267 30.2403 32.135 27.4447C34.003 24.6491 35 21.3623 35 18C34.9949 13.4929 33.2021 9.17187 30.0151 5.98486C26.8281 2.79786 22.5071 1.00514 18 1ZM27.7046 28.8387C27.6804 27.246 27.0314 25.7265 25.8976 24.6076C24.7638 23.4888 23.2358 22.8601 21.6429 22.8571H14.3571C12.7642 22.8601 11.2362 23.4888 10.1024 24.6076C8.96856 25.7265 8.31964 27.246 8.29544 28.8387C6.09341 26.8725 4.54054 24.2838 3.84245 21.4154C3.14436 18.547 3.33398 15.5342 4.38621 12.776C5.43844 10.0177 7.30363 7.64417 9.73481 5.96954C12.166 4.29492 15.0485 3.39825 18.0006 3.39825C20.9527 3.39825 23.8352 4.29492 26.2664 5.96954C28.6976 7.64417 30.5628 10.0177 31.615 12.776C32.6672 15.5342 32.8569 18.547 32.1588 21.4154C31.4607 24.2838 29.9078 26.8725 27.7058 28.8387H27.7046Z" fill="#8D3F3F" stroke="#8D3F3F"/>
</svg>
